<?xml version="1.0" encoding="UTF-8"?>
<svg id="Layer_1" data-name="Layer 1" xmlns="http://www.w3.org/2000/svg" viewBox="0 0 32 32">
  <defs>
    <style>
      .cls-1 {
        fill: #49b6bd;
        stroke-width: 0px;
      }
    </style>
  </defs>
  <path class="cls-1" d="M24.05,4.92s-6.22.69-11.89,6.01c-.38.36-.76.74-1.14,1.14-2.23,2.37-4.31,5.53-5.82,9.72v-10.86H.27v-6h23.78Z"/>
  <path class="cls-1" d="M19.07,19.38s3.29,5.82,9.53.85l3.12,4.45s-2.83,3.76-9.86,3.06c0,0-2.17-2.77-2.79-8.36Z"/>
  <path class="cls-1" d="M19.8,12.5s3.81-4.56,8.71.17l3.22-4.28s-1.48-2.82-7.33-3.46c0,0-4.44,5.13-4.6,7.57Z"/>
  <path class="cls-1" d="M16.35,24.68s-2.27-12.28,8.05-19.75c0,0-9.6,5.24-10.22,17.07l2.17,2.68Z"/>
  <path class="cls-1" d="M12.79,15.73l.66-3.48s3.98-5.78,10.95-7.33c0,0-9.17,5.97-11.61,10.81Z"/>
  <path class="cls-1" d="M10.53,16.82s-2.66,5.03-3.32,10.98h2.21s.36-4.36,1.11-6.27v-4.7Z"/>
</svg>